<svg 
 xmlns="http://www.w3.org/2000/svg"
 xmlns:xlink="http://www.w3.org/1999/xlink"
 width="77px" height="127px">
<defs>
<filter id="Filter_0">
    <feFlood flood-color="rgb(111, 224, 241)" flood-opacity="1" result="floodOut" />
    <feComposite operator="atop" in="floodOut" in2="SourceGraphic" result="compOut" />
    <feBlend mode="normal" in="compOut" in2="SourceGraphic" />
</filter>

</defs>
<g filter="url(#Filter_0)">
<path fill-rule="evenodd"  fill="rgb(37, 135, 156)"
 d="M69.781,91.54 L61.21,126.997 L15.977,126.997 L7.218,91.54 L0.0,91.54 L0.0,72.153 L33.108,72.153 C32.114,70.402 30.110,65.640 26.669,62.426 C24.510,71.936 13.65,67.458 9.216,60.397 C5.890,54.306 0.919,49.45 0.919,49.45 C0.919,49.45 28.922,41.713 26.950,60.828 C26.939,60.949 26.909,61.32 26.896,61.139 C23.588,58.272 19.11,55.462 12.846,53.865 C18.840,56.102 23.359,59.329 26.666,62.419 C26.757,62.15 26.841,61.598 26.890,61.140 C30.195,64.17 32.222,66.919 33.307,68.765 C32.764,62.962 33.877,58.147 37.829,52.63 C37.809,52.98 40.35,53.477 40.79,53.501 C33.13,63.85 40.114,70.17 41.999,72.153 L76.998,72.153 L76.999,91.54 L69.781,91.54 ZM19.249,124.602 L55.343,124.602 L64.968,91.54 L14.437,91.54 L19.249,124.602 ZM2.406,74.281 L3.499,89.291 L4.812,88.659 L72.187,88.659 L73.499,85.865 L74.593,74.281 L2.406,74.281 ZM50.589,98.853 C50.101,99.301 49.434,99.576 48.767,99.576 C48.99,99.576 47.432,99.301 46.945,98.853 C46.482,98.379 46.200,97.731 46.200,97.83 C46.200,96.407 46.482,95.784 46.945,95.313 C47.920,94.390 49.640,94.415 50.589,95.313 C51.51,95.761 51.333,96.407 51.333,97.83 C51.333,97.731 51.51,98.379 50.589,98.853 ZM40.906,98.244 L26.468,98.244 C25.51,98.244 23.100,98.461 23.100,97.83 C23.100,95.704 25.51,95.847 26.468,95.847 L40.906,95.847 C42.322,95.847 43.633,95.704 43.633,97.83 C43.633,98.461 42.322,98.244 40.906,98.244 ZM27.489,102.792 C27.951,103.263 28.233,103.913 28.233,104.561 C28.233,105.210 27.951,105.857 27.489,106.331 C27.1,106.780 27.135,105.432 26.468,105.432 C25.801,105.432 24.332,106.780 23.844,106.331 C23.382,105.857 23.100,105.235 23.100,104.561 C23.100,103.913 23.382,103.263 23.899,102.415 C25.617,103.165 26.794,103.209 27.489,102.792 ZM33.687,103.36 L38.499,103.36 C39.916,103.36 41.67,103.183 41.67,104.561 C41.67,105.940 39.916,105.432 38.499,105.432 L33.687,105.432 C32.270,105.432 30.800,105.940 30.800,104.561 C30.800,103.183 32.270,103.36 33.687,103.36 ZM40.80,53.510 C42.501,49.818 43.558,47.849 47.999,42.801 C53.730,44.40 62.589,38.362 62.589,38.362 C56.439,41.97 51.352,40.992 49.523,40.833 C49.848,40.480 55.404,34.905 56.870,31.975 C62.217,31.240 65.824,26.25 65.824,26.25 C65.659,25.931 63.329,28.402 58.279,29.502 C62.214,21.35 60.753,14.103 60.753,14.103 C60.753,14.103 59.926,20.793 56.204,28.609 C54.316,23.827 55.19,20.237 54.845,20.150 C54.845,20.150 52.382,26.293 54.869,31.140 C52.696,34.625 48.886,37.959 47.528,39.395 C47.349,39.101 44.780,34.93 45.8,26.16 C45.8,26.16 42.391,36.564 46.2,41.198 C43.118,44.260 42.342,45.24 37.857,52.37 C23.671,44.941 31.568,26.641 40.308,21.209 C49.284,15.626 53.461,15.739 59.836,0.17 C72.24,12.478 74.118,33.744 66.736,46.258 C57.680,61.606 44.489,55.978 40.80,53.510 Z"/>
</g>
</svg>